<mxfile host="app.diagrams.net" modified="2021-05-19T04:33:17.371Z" agent="5.0 (Windows NT 10.0; Win64; x64) AppleWebKit/537.36 (KHTML, like Gecko) Chrome/90.0.4430.212 Safari/537.36" etag="7kDdXJR9JQYhkDaLL5UY" version="14.6.13" type="github">
  <diagram id="-I4tiwmeMgIkfHcI13iX" name="Page-1">
    <mxGraphModel dx="1422" dy="762" grid="1" gridSize="10" guides="1" tooltips="1" connect="1" arrows="1" fold="1" page="1" pageScale="1" pageWidth="827" pageHeight="1169" math="0" shadow="0">
      <root>
        <mxCell id="0" />
        <mxCell id="1" parent="0" />
        <mxCell id="Kk8Lm8MRhsnYJ5mBKAx1-2" value="Application" style="rounded=0;whiteSpace=wrap;html=1;" vertex="1" parent="1">
          <mxGeometry x="190" y="440" width="290" height="100" as="geometry" />
        </mxCell>
        <mxCell id="Kk8Lm8MRhsnYJ5mBKAx1-3" value="this.router (&#39;/&#39;)" style="rounded=0;whiteSpace=wrap;html=1;" vertex="1" parent="1">
          <mxGeometry x="370" y="460" width="100" height="60" as="geometry" />
        </mxCell>
        <mxCell id="Kk8Lm8MRhsnYJ5mBKAx1-5" value="Router (&#39;cats&#39;)" style="rounded=0;whiteSpace=wrap;html=1;" vertex="1" parent="1">
          <mxGeometry x="550" y="415" width="120" height="60" as="geometry" />
        </mxCell>
        <mxCell id="Kk8Lm8MRhsnYJ5mBKAx1-6" value="Router(&#39;dogs&#39;)" style="rounded=0;whiteSpace=wrap;html=1;" vertex="1" parent="1">
          <mxGeometry x="550" y="505" width="120" height="60" as="geometry" />
        </mxCell>
        <mxCell id="Kk8Lm8MRhsnYJ5mBKAx1-10" value="" style="endArrow=classic;html=1;exitX=1;exitY=0.5;exitDx=0;exitDy=0;entryX=0;entryY=0.5;entryDx=0;entryDy=0;" edge="1" parent="1" source="Kk8Lm8MRhsnYJ5mBKAx1-3" target="Kk8Lm8MRhsnYJ5mBKAx1-5">
          <mxGeometry width="50" height="50" relative="1" as="geometry">
            <mxPoint x="570" y="500" as="sourcePoint" />
            <mxPoint x="580" y="470" as="targetPoint" />
          </mxGeometry>
        </mxCell>
        <mxCell id="Kk8Lm8MRhsnYJ5mBKAx1-11" value="" style="endArrow=classic;html=1;exitX=1;exitY=0.5;exitDx=0;exitDy=0;entryX=0;entryY=0.5;entryDx=0;entryDy=0;" edge="1" parent="1" source="Kk8Lm8MRhsnYJ5mBKAx1-3" target="Kk8Lm8MRhsnYJ5mBKAx1-6">
          <mxGeometry width="50" height="50" relative="1" as="geometry">
            <mxPoint x="480" y="500" as="sourcePoint" />
            <mxPoint x="630" y="455" as="targetPoint" />
          </mxGeometry>
        </mxCell>
      </root>
    </mxGraphModel>
  </diagram>
</mxfile>
